<svg id="Layer_1" data-name="Layer 1" xmlns="http://www.w3.org/2000/svg" viewBox="0 0 170.28 78.09"><defs><style>.cls-1{fill:#fff;}</style></defs><path class="cls-1" d="M130.87.16H39.41A38.89,38.89,0,0,0,.53,39.05h0A38.71,38.71,0,0,0,7.45,61.19L.53,77.93,17.25,71a38.72,38.72,0,0,0,22.16,6.94h91.46a38.88,38.88,0,0,0,38.88-38.88h0A38.89,38.89,0,0,0,130.87.16Zm-93,62.76A19.32,19.32,0,0,1,18.59,43.61H37.9ZM63.61,46.21a16.73,16.73,0,0,1-16.7,16.71V15.18h16.7ZM84.94,62.56,70.72,15.18H88.14l14.15,47.38Zm29.5,0L100.22,15.18h17.41l14.16,47.38Zm24.75-16.4-9.47-31h17.77Z"/></svg>