<?xml version="1.0" encoding="utf-8"?>
<!-- Generator: Adobe Illustrator 24.1.1, SVG Export Plug-In . SVG Version: 6.00 Build 0)  -->
<svg version="1.1"
	 id="svg2" inkscape:version="0.91 r13725" xmlns:cc="http://creativecommons.org/ns#" xmlns:dc="http://purl.org/dc/elements/1.1/" xmlns:inkscape="http://www.inkscape.org/namespaces/inkscape" xmlns:ns1="http://sozi.baierouge.fr" xmlns:rdf="http://www.w3.org/1999/02/22-rdf-syntax-ns#" xmlns:sodipodi="http://sodipodi.sourceforge.net/DTD/sodipodi-0.dtd"
	 xmlns="http://www.w3.org/2000/svg" xmlns:xlink="http://www.w3.org/1999/xlink" x="0px" y="0px" viewBox="0 0 1475.4 801.7"
	 style="enable-background:new 0 0 1475.4 801.7;" xml:space="preserve">
<style type="text/css">
	.st0{fill:#FFFFFF;}
</style>
<g>
	<path class="st0" d="M334.4,694.9c2.9-29.9-10.4-55.9-10.4-55.9c0,0-29,0.8-28.1,50.1c0.4,22,6.7,39,10.6,47.6
		c-15.5-9.6-30.3-20.2-43.8-32.1c-1.9-1.6-3.7-3.3-5.6-5c4.4-1.8,22.3-11.2,27.8-48.1c4.4-29.7-8.9-55.4-8.9-55.4l0,0
		c0,0-30,4.3-31.4,45.8c-1,30.8,6.8,49.2,10.1,55.5c-17.4-15.7-34.2-32.5-49.7-50.4c12.8-9.7,28.8-20,36.7-35.4
		c12-23.3,9.4-36.9,11.1-58.4c-15.3,4.5-31.9,9-43.5,41c-6.7,18.6-1,27-6.1,50.8c-12.3-14.4-23.8-29.5-34.1-45.2
		c14.3-6.5,31-10.5,43.7-30.4c14-22.2,11-22.3,23.7-58.7c-15.9,1.5-33,2.8-50.5,32c-10.1,16.9-8.8,31.9-18.5,54.7
		c-10.9-17.1-20.3-35-27.8-53.7c15.8-3.8,36.7-3.1,56.8-24.3c20.7-21.7,28-43.3,32.8-59.2c-15.9,1.5-40.4,0.8-59.8,26.2
		c-17,22.3-15.9,29.3-31.2,53.8c-2.1-5.4-4-10.8-5.7-16.3c-3.7-12-6.7-24.4-8.9-36.9c10.7-0.2,36.1-0.9,58.6-21.3
		c22.2-20.2,32.6-43.3,38.7-58.8c-16,0.2-39.2-4.6-63.6,22.7c-17.9,20-24.4,34.7-34.6,52.1c-3.4-21.9-4.3-44.4-2.9-66.8
		c9.4,0.3,38.6,1.4,65-17.7c24.3-17.5,36.1-40.8,43.9-55.5c-15.9-1.6-39.4-9.3-66.7,15c-20.9,18.6-29.1,37.4-42,55
		c0.6-8.4,1.6-16.9,2.9-25.2c2.5-16.6,6.7-33.1,11.7-49.4c9.5,1.9,31.8,5.5,60.6-4.9c31-11.2,48.4-42.4,52.6-49.9
		c-15.3-4.5-33.7-10.2-67.4,6.9c-20,10.2-34,25.4-41.9,35.8c6.2-18.5,13.4-36.6,20.5-53.9c8.9,2.4,31.3,8.1,61.5-0.4
		c31.7-9,51.3-38.9,56-46c-15-5.6-32.9-12.6-67.7,2.1c-21.5,9-36.9,24-45.3,33.8c10.6-23.8,22.6-43.7,36.7-63.9
		c6.2,3,19.8,10,52.1,7c40.9-3.8,57.9-29.8,57.9-29.8c-13.8-8.1-27.3-13.1-55.3-8.2c-23.5,4.1-40.2,15.6-49.1,23.1
		c12.1-16.8,24.7-33.3,37.9-49.3c6.7,2.9,24.3,9.9,57,6.9c40.9-3.8,62.2-31.1,62.2-31.1c-13.8-8.1-35.3-12.6-63.4-7.7
		c-21.7,3.8-38,14.2-47.6,21.9c8.8-10.4,17.9-20.6,27.1-30.4c4.4-4.7,9.2-9.3,14.2-13.7c9.7,0.1,44.8-0.3,63.6-11.2
		c24.6-14.3,48.7-45.3,50.6-54.3c0,0-38.7-17-74.8,14c-22.1,19-34.5,37.5-39.6,46.7c-4.8,4.2-9.4,8.6-13.7,13.1
		c-4.9,5.1-9.7,10.2-14.5,15.5c6.7-10.5,14.4-25.5,17.6-43c5-28,0-58.4-5.3-66c0,0-30.2,18.8-32.4,66.3c-1.5,32.6,4.8,49.7,7.8,56.4
		c-15.2,17.3-30.1,35.3-43.9,53.5c6.1-11.7,14.5-30.2,17.7-49.4c5.1-29.9-7.1-62.5-9.8-65.5c0,0-31.6,13.9-30.5,67.3
		c0.7,30.4,11.2,52.3,14.5,58.3c-1.1,1.5-2.2,3-3.3,4.5c-10.6,14.6-23.2,34.1-34,52.9c3.7-11.7,8.6-31.5,7.5-52
		c-2.3-44.8-32.7-63.7-33.4-63.7c0,0-29.3,26.4-12.5,83.1c8.5,28.9,26.9,39.8,32.7,42.6c-3.9,7.1-7.4,14-10.3,20.4
		c-7,15.2-12.7,28.3-17.7,41.5c1.6-12.6,2.7-29.5,0.6-46c-6.1-48.3-43.7-58.5-44.4-58.5c0,0-12.9,44.7,5.4,83
		c14.2,29.8,26.4,38,31.9,40.3c-3.4,10.7-6.4,22-9.4,35c-1.9,8.4-3.5,16.8-4.8,25.3c-0.7-14.5-2.7-36.4-9.1-54.7
		C85.4,298,45,289.6,44.3,289.8c0,0-6.5,45.5,16.8,81c20.4,30.9,39.9,38.4,46.2,40c-2.4,23.9-2.1,47.9,0.5,71.5
		c-8.4-15.1-11.4-42-26.9-64.5c-25.6-37.1-67.7-34.4-68.4-34.1c0,0,4.5,46.2,36.5,74.2c26.2,22.9,50,29.1,59.6,30.8
		c1.7,13.2,4.1,26.3,7.3,39.2c0.5,2.2,1.1,4.4,1.7,6.6c-7.6-10.3-28.5-35.8-56.7-49.3c-34.8-16.8-60.2-2.5-60.9-1.9
		c0,0,17.9,32.7,50.8,48.3c38,18.1,62,10.8,68.3,8.2c5.3,17.7,12.8,34.6,22,50.9c-9.2-8.4-30-25.1-55.9-33
		c-46.1-14.2-67.7,13.6-68.4,14.3c0,0,18.9,23.8,58.3,34.2c44.5,11.8,64.6-3.7,69.8-8.9c13.6,22.9,30.3,44.3,48.5,64.4
		c-10.4-8.1-31.9-23.2-52.9-28.5c-50.5-12.7-67.2,16.7-67.2,16.7s18.8,22.5,59.3,32.4c41.6,10.2,62.4-9.9,66.5-14.5
		c14.6,15.6,30.1,30.3,45.6,44.2c-8.1-3.5-34.2-13.9-59.2-13.7c-52.1,0.4-55.2,28-55.2,28s18.8,13.6,60.5,13
		c42.9-0.6,54.2-21,56.1-25.4c1,0.9,2.1,1.8,3.1,2.7c16.6,14.6,35.3,27.4,55,38.6c-12-3.2-38.8-9.2-61.2-6.6
		c-47.4,5.6-51.8,35-51.8,35s19,11.8,59.8,7.3c41.5-4.6,55.8-26.8,58.8-32.6c32.5,17.9,67.2,31.9,99.3,43.3l5.5-14.6
		c-34.2-12.2-69.8-27.1-102.4-46.4C319.2,736.1,331.6,723.5,334.4,694.9z"/>
	<polygon class="st0" points="324,638.9 324,638.9 324,638.9 	"/>
	<path class="st0" d="M1390.4,557.5c-26,8-46.8,24.8-56,33.1c9.1-16.3,16.7-33.3,22-51c6.2,2.6,30.2,10,68.3-8.2
		c32.9-15.7,50.8-48.3,50.8-48.3c-0.6-0.6-26.1-14.8-60.9,1.9c-28.2,13.6-49.1,39.2-56.7,49.4c0.6-2.2,1.2-4.4,1.7-6.7
		c3.1-12.9,5.6-26,7.3-39.2c9.5-1.6,33.4-7.9,59.6-30.8c32-27.9,36.5-74.2,36.5-74.2c-0.6-0.3-42.8-3-68.4,34.1
		c-15.5,22.5-18.6,49.5-26.9,64.5c2.6-23.6,2.9-47.5,0.5-71.5c6.3-1.6,25.8-9,46.3-40.1c23.4-35.4,16.8-81,16.8-81
		c-0.7-0.2-41.1,8.2-55.8,50.8c-6.4,18.5-8.5,40.5-9.1,55c-1.3-8.5-2.8-17.1-4.8-25.6c-3-12.9-6-24.3-9.4-34.9
		c5.5-2.3,17.6-10.5,31.9-40.3c18.3-38.3,5.4-83,5.4-83c-0.7-0.1-38.3,10.2-44.4,58.5c-2.1,16.6-1,33.7,0.6,46.2
		c-5-13.3-10.7-26.5-17.7-41.7c-2.9-6.3-6.4-13.2-10.3-20.4c5.7-2.7,24.2-13.7,32.7-42.6c16.8-56.8-12.5-83.1-12.5-83.1
		c-0.7,0-31.1,18.9-33.4,63.7c-1.1,20.6,3.9,40.5,7.6,52.2c-10.8-18.9-23.5-38.4-34.2-53.1c-1.1-1.5-2.2-3-3.3-4.5
		c3.2-6.1,13.8-28,14.5-58.3c1.2-53.4-30.5-67.3-30.5-67.3c-2.7,3-14.8,35.6-9.8,65.5c3.2,19.2,11.6,37.6,17.7,49.3
		c-13.8-18.1-28.6-36.1-43.8-53.3c3-6.7,9.3-23.8,7.8-56.4c-2.2-47.5-32.4-66.3-32.4-66.3c-5.3,7.6-10.3,38-5.3,66
		c3.1,17.5,10.9,32.6,17.6,43.1c-4.9-5.3-9.7-10.5-14.6-15.6c-4.3-4.5-8.8-8.8-13.6-13c-5-9.1-17.5-27.7-39.7-46.8
		c-36.1-31-74.8-14-74.8-14c1.9,9,26,40,50.6,54.3c18.8,10.9,53.9,11.3,63.6,11.2c5,4.4,9.8,9,14.2,13.7c9.2,9.8,18.3,20,27.1,30.3
		c-9.6-7.7-25.9-18.1-47.5-21.9c-28-4.9-49.5-0.4-63.3,7.7c0,0,21.3,27.3,62.2,31.1c32.7,3,50.3-4,57-6.9c13.2,16.1,26,32.7,38,49.5
		c-8.8-7.5-25.6-19.1-49.3-23.2c-28-4.9-41.4,0.1-55.3,8.2c0,0,17,26.1,57.9,29.8c32.4,3,45.9-4.1,52.1-7.1
		c14.1,20.2,26.1,40,36.7,63.9c-8.5-9.8-23.8-24.8-45.3-33.8c-34.8-14.7-52.7-7.7-67.7-2.1c4.8,7.2,24.3,37,56,46
		c30.1,8.5,52.5,2.9,61.4,0.4c7.1,17.3,14.3,35.5,20.6,54c-7.9-10.4-21.9-25.7-42-35.9c-33.7-17.1-52.1-11.4-67.4-6.9
		c4.3,7.5,21.6,38.7,52.6,49.9c28.8,10.4,51.2,6.8,60.6,4.9c5,16.3,9.2,32.9,11.7,49.4c1.3,8.4,2.2,16.9,2.9,25.3
		c-13-17.6-21.1-36.4-42.1-55c-27.3-24.4-50.8-16.6-66.7-15c7.8,14.7,19.6,38,43.9,55.5c26.5,19.1,55.8,17.9,65.1,17.7
		c1.4,22.4,0.4,44.8-2.9,66.7c-10.1-17.4-16.6-32.1-34.6-52.1c-24.4-27.3-47.6-22.4-63.6-22.7c6.1,15.5,16.5,38.7,38.7,58.8
		c22.5,20.4,47.9,21.1,58.6,21.3c-2.2,12.5-5.1,24.9-8.9,36.9c-1.7,5.5-3.6,10.9-5.7,16.3c-15.3-24.6-14.2-31.6-31.2-53.8
		c-19.4-25.4-43.9-24.7-59.8-26.2c4.9,15.9,12.2,37.5,32.8,59.2c20.1,21.2,41,20.5,56.8,24.3c-7.4,18.7-16.9,36.6-27.8,53.7
		c-9.7-22.9-8.4-37.9-18.5-54.7c-17.4-29.2-34.5-30.5-50.5-32c12.7,36.4,9.8,36.6,23.7,58.7c12.6,20,29.4,23.9,43.6,30.4
		c-10.3,15.8-21.8,30.9-34.1,45.3c-5.1-23.9,0.6-32.3-6.1-50.9c-11.6-32-28.1-36.5-43.5-41c1.8,21.5-0.9,35.1,11.1,58.4
		c8,15.4,23.9,25.7,36.7,35.4c-15.5,17.9-32.3,34.7-49.7,50.4c3.3-6.3,11.1-24.7,10.1-55.5c-1.4-41.5-31.4-45.8-31.4-45.8l0,0
		c0,0-13.3,25.7-8.9,55.4c5.5,36.9,23.5,46.4,27.8,48.1c-1.9,1.7-3.7,3.3-5.6,5c-13.5,11.9-28.3,22.6-43.8,32.2
		c4-8.6,10.2-25.5,10.6-47.6c0.9-49.3-28.1-50.1-28.1-50.1v0c0,0-13.3,26-10.4,55.9c2.8,28.6,15.2,41.2,21.3,45.8
		c-32.6,19.3-68.2,34.2-102.4,46.4l5.5,14.6c32.1-11.5,66.9-25.4,99.3-43.4c3,5.7,17.2,28,58.8,32.6c40.8,4.5,59.8-7.3,59.8-7.3
		s-4.4-29.4-51.8-35c-22.5-2.6-49.5,3.5-61.4,6.6c19.7-11.3,38.4-24,55.1-38.6c1-0.9,2.1-1.8,3.1-2.7c1.9,4.4,13.2,24.8,56.1,25.4
		c41.7,0.6,60.5-13,60.5-13s-3.1-27.7-55.2-28c-25-0.2-51.1,10.2-59.2,13.7c15.6-13.9,31-28.6,45.7-44.2c4,4.5,24.8,24.7,66.5,14.5
		c40.5-9.9,59.3-32.4,59.3-32.4s-16.7-29.4-67.2-16.7c-21.2,5.3-42.9,20.7-53.2,28.7c18.3-20.1,35.1-41.7,48.7-64.6
		c5.2,5.1,25.2,20.7,69.8,8.9c39.4-10.4,58.3-34.2,58.3-34.2C1458.1,571.2,1436.5,543.4,1390.4,557.5z"/>
</g>
<g>
	<g>
		<g>
			<path class="st0" d="M438,307.7v-75c-4.8,1.2-12,1.8-16.1,1.8V214c11-1.5,20-7,25.7-13.1h22.1v106.8H438z"/>
			<path class="st0" d="M528.6,235.3h-25.1v10.5h28.1l-1.8,11.9h-41.7v-55.1h41.6v11.9h-26.2v9h25.1V235.3z M507.6,187.4l9.9,10.9
				h-13l-14.8-10.9H507.6z"/>
			<path class="st0" d="M554.6,236.8v20.9h-15.5v-55.1h27.2c12.9,0,19.2,6.9,19.2,15.3c0,7.6-4.4,11.5-8.2,13.1
				c3.4,1.2,7.1,4.8,7.1,14.2v2.3c0,3.4,0.1,7.9,0.7,10.3h-15.2c-0.9-2.4-1.2-6.4-1.2-12.1v-1.4c0-4.8-1.1-7.4-8.4-7.4H554.6z
				 M554.6,225.6h7.6c5.4,0,7.4-2.2,7.4-6c0-3.7-2.3-5.9-7.3-5.9h-7.7V225.6z"/>
			<path class="st0" d="M634.8,235.3h-25.1v10.5h28.1l-1.8,11.9h-41.7v-55.1h41.6v11.9h-26.2v9h25.1V235.3z"/>
			<path class="st0" d="M687.3,196.1h51.5c25.1,0,42,14,42,35.8c0,25.1-19.2,36.6-42.8,36.6h-18.7v39.3h-32V196.1z M719.2,245.5
				h13.5c9.3,0,15.9-3.8,15.9-13.2c0-9.6-6.7-13.3-15.8-13.3h-13.6V245.5z"/>
			<path class="st0" d="M829.4,265.4v42.2h-31.4V196.1h55c26.2,0,38.9,14,38.9,30.9c0,15.4-9,23.3-16.7,26.5
				c6.9,2.4,14.5,9.8,14.5,28.7v4.7c0,7,0.2,15.9,1.5,20.8h-30.8c-1.9-4.8-2.4-12.9-2.4-24.4v-2.8c0-9.7-2.3-15-16.9-15H829.4z
				 M829.4,242.7h15.3c11,0,15-4.5,15-12.1c0-7.5-4.8-11.9-14.8-11.9h-15.5V242.7z"/>
			<path class="st0" d="M942.2,196.1v111.6h-32.5V196.1H942.2z"/>
			<path class="st0" d="M1024.7,307.7l-19-36.4h-0.3l-19.3,36.4h-34.6l34.8-55.6l-34.1-56h37.4l17.6,34.5h0.4l18.2-34.5h34l-34,52.7
				l36.1,58.9H1024.7z"/>
		</g>
	</g>
	<g>
		<g>
			<path class="st0" d="M486.3,426v26.8c0,10.4,5.7,13.2,11.3,13.2c6.6,0,11.2-3.1,11.2-13.2V426h6.2v26.5
				c0,14.5-8.1,18.6-17.5,18.6c-9.3,0-17.4-4.5-17.4-18.2V426H486.3z"/>
			<path class="st0" d="M526.2,470.5V426h8.1c6.3,10.4,20,32.2,22.4,37.1h0.1c-0.4-5.6-0.4-12.7-0.4-20V426h5.8v44.5h-7.6
				c-5.8-9.6-20.1-33.2-22.8-38.2h-0.1c0.3,5,0.3,12.6,0.3,20.7v17.5H526.2z"/>
			<path class="st0" d="M580.1,426v44.5h-6.2V426H580.1z"/>
			<path class="st0" d="M600.7,431.2h-14.3V426h34.9v5.3h-14.3v39.3h-6.2V431.2z"/>
			<path class="st0" d="M655.7,449.8h-22.1v15.5h24.3l-0.8,5.3h-29.5V426h29.2v5.3h-23.1v13.3h22.1V449.8z"/>
			<path class="st0" d="M665.9,426h16c12.5,0,21,8.5,21,21.8c0,13.2-8.2,22.7-21.2,22.7h-15.8V426z M672.1,465.3h9.2
				c10.3,0,15.2-7.4,15.2-17.4c0-8.7-4.5-16.7-15.2-16.7h-9.2V465.3z"/>
			<path class="st0" d="M728.3,470.5V426h8.1c6.3,10.4,20,32.2,22.4,37.1h0.1c-0.4-5.6-0.4-12.7-0.4-20V426h5.8v44.5h-7.6
				c-5.8-9.6-20.1-33.2-22.8-38.2h-0.1c0.3,5,0.3,12.6,0.3,20.7v17.5H728.3z"/>
			<path class="st0" d="M782.2,457.4l-4.7,13.1h-6.1l15.8-44.5h7.6l16.5,44.5h-6.6l-4.9-13.1H782.2z M798.4,452.1
				c-4.2-11.5-6.5-17.7-7.5-21.2h-0.1c-1.1,3.8-3.7,11.3-7,21.2H798.4z"/>
			<path class="st0" d="M827.4,431.2h-14.3V426h34.9v5.3h-14.3v39.3h-6.2V431.2z"/>
			<path class="st0" d="M860.4,426v44.5h-6.2V426H860.4z"/>
			<path class="st0" d="M911,448c0,12.3-6.9,23.1-21,23.1c-13.2,0-20.5-10.1-20.5-22.9c0-12.8,7.5-22.9,21-22.9
				C903.2,425.4,911,434.8,911,448z M876,448.1c0,9.6,4.8,17.9,14.3,17.9c10.2,0,14.3-8.4,14.3-17.8c0-9.5-4.6-17.5-14.3-17.5
				C880.4,430.6,876,438.6,876,448.1z"/>
			<path class="st0" d="M920.2,470.5V426h8.1c6.3,10.4,20,32.2,22.4,37.1h0.1c-0.4-5.6-0.4-12.7-0.4-20V426h5.8v44.5h-7.6
				c-5.8-9.6-20.1-33.2-22.8-38.2h-0.1c0.3,5,0.3,12.6,0.3,20.7v17.5H920.2z"/>
			<path class="st0" d="M971,458.1c1.2,5.3,4.8,8.1,11.2,8.1c6.8,0,9.5-3.2,9.5-7.3c0-4.4-2.2-6.8-11-9
				c-10.6-2.6-14.2-6.2-14.2-12.5c0-6.7,4.9-12.1,14.9-12.1c10.7,0,15.1,6.1,15.7,12h-6.3c-0.8-3.9-3.2-7.1-9.6-7.1
				c-5.3,0-8.3,2.4-8.3,6.6c0,4.1,2.5,5.7,10.2,7.6c12.7,3.1,15,8,15,13.8c0,7.2-5.4,12.9-16.3,12.9c-11.2,0-16.1-6.1-17-13H971z"/>
			<path class="st0" d="M438.2,529.2V494c-2.1,1.5-6.3,3.2-8.7,3.6v-4.7c3.3-0.9,7.4-3.3,10.2-6h4.4v42.3H438.2z"/>
			<path class="st0" d="M480.5,492.1H463c-0.4,3.3-1.4,9.5-1.8,11.8c1.8-1.9,4.5-3.3,8.7-3.3c7.7,0,12.7,5.4,12.7,14
				c0,8.2-4.3,15.4-14.6,15.4c-7.6,0-13.1-4.2-14.2-11.4h5.9c1,3.8,3.7,6.5,8.4,6.5c5.6,0,8.4-4,8.4-10.1c0-5.4-2.2-9.5-8-9.5
				c-5,0-7.1,2.1-8.5,5.4l-5.5-1c1.2-5.5,2.9-17.6,3.5-22.9h23.2L480.5,492.1z"/>
			<path class="st0" d="M508.2,504.7h-14.7V515h16.2l-0.5,3.5h-19.7v-29.7h19.4v3.5h-15.4v8.9h14.7V504.7z M496,479.9l5.8,5.9h-3.9
				l-7-5.9H496z"/>
			<path class="st0" d="M540.3,506c0-5.5,0.1-11.1,0.2-14.2h-0.2c-1.3,4.9-6,17.4-9.3,26.8h-3.7c-2.5-7.6-7.4-21.7-8.7-26.8h-0.1
				c0.2,3.4,0.3,10,0.3,15.1v11.8H515v-29.7h6.1c3.3,9.1,7.3,20.9,8.3,24.7h0.1c0.7-2.9,5.5-15.8,8.9-24.7h5.9v29.7h-4V506z"/>
			<path class="st0" d="M570.8,504.7h-14.7V515h16.2l-0.5,3.5h-19.7v-29.7h19.4v3.5h-15.4v8.9h14.7V504.7z"/>
			<path class="st0" d="M631.2,516.5c-2,7.6-7.6,13.3-17.8,13.3c-13.4,0-20.1-10.1-20.1-22.7c0-12.1,6.7-23,20.3-23
				c10.6,0,16.3,6.1,17.6,13.5H625c-1.5-4.8-4.7-8.4-11.7-8.4c-9.7,0-13.6,8.8-13.6,17.7c0,8.7,3.7,17.8,13.9,17.8
				c6.8,0,9.8-4,11.4-8.2H631.2z"/>
			<path class="st0" d="M678.8,506.7c0,12.3-6.9,23.1-21,23.1c-13.2,0-20.5-10.1-20.5-22.9c0-12.8,7.5-22.9,21-22.9
				C670.9,484.1,678.8,493.4,678.8,506.7z M643.8,506.8c0,9.6,4.8,17.9,14.3,17.9c10.2,0,14.3-8.4,14.3-17.8
				c0-9.5-4.6-17.5-14.3-17.5C648.1,489.3,643.8,497.3,643.8,506.8z"/>
			<path class="st0" d="M687.9,529.2v-44.5h8.1c6.3,10.4,20,32.2,22.4,37.1h0.1c-0.4-5.6-0.4-12.7-0.4-20v-17.1h5.8v44.5h-7.6
				c-5.8-9.6-20.1-33.2-22.8-38.2h-0.1c0.3,5,0.3,12.6,0.3,20.7v17.5H687.9z"/>
			<path class="st0" d="M771.1,516.5c-2,7.6-7.6,13.3-17.8,13.3c-13.4,0-20.1-10.1-20.1-22.7c0-12.1,6.7-23,20.3-23
				c10.6,0,16.3,6.1,17.6,13.5h-6.2c-1.5-4.8-4.7-8.4-11.7-8.4c-9.7,0-13.6,8.8-13.6,17.7c0,8.7,3.7,17.8,13.9,17.8
				c6.8,0,9.8-4,11.4-8.2H771.1z"/>
			<path class="st0" d="M818.7,506.7c0,12.3-6.9,23.1-21,23.1c-13.2,0-20.5-10.1-20.5-22.9c0-12.8,7.5-22.9,21-22.9
				C810.8,484.1,818.7,493.4,818.7,506.7z M783.7,506.8c0,9.6,4.8,17.9,14.3,17.9c10.2,0,14.3-8.4,14.3-17.8
				c0-9.5-4.6-17.5-14.3-17.5C788,489.3,783.7,497.3,783.7,506.8z"/>
			<path class="st0" d="M833.7,484.7v26.8c0,10.4,5.7,13.2,11.3,13.2c6.6,0,11.2-3.1,11.2-13.2v-26.8h6.2v26.5
				c0,14.5-8.1,18.6-17.5,18.6c-9.3,0-17.4-4.5-17.4-18.2v-26.9H833.7z"/>
			<path class="st0" d="M879.7,509.7v19.5h-6.1v-44.5h17.5c9.2,0,14.1,5,14.1,11.9c0,5.8-3.3,9.3-7.5,10.5c3.5,1,6.7,3.6,6.7,11.4
				v1.9c0,3.1-0.1,6.9,0.6,8.8h-6c-0.8-1.9-0.8-5.4-0.8-9.6v-0.9c0-6.2-1.8-9-9.7-9H879.7z M879.7,504.6h9.6c6.7,0,9.6-2.5,9.6-7.4
				c0-4.7-3-7.3-9-7.3h-10.2V504.6z"/>
			<path class="st0" d="M917.8,516.8c1.2,5.3,4.8,8.1,11.2,8.1c6.8,0,9.5-3.2,9.5-7.3c0-4.4-2.2-6.8-11-9
				c-10.6-2.6-14.2-6.2-14.2-12.5c0-6.7,4.9-12.1,14.9-12.1c10.7,0,15.1,6.1,15.7,12h-6.3c-0.8-3.9-3.2-7.1-9.6-7.1
				c-5.3,0-8.3,2.4-8.3,6.6c0,4.1,2.5,5.7,10.2,7.6c12.7,3.1,15,8,15,13.8c0,7.2-5.4,12.9-16.3,12.9c-11.2,0-16.1-6.1-17-13H917.8z"
				/>
			<path class="st0" d="M969.9,484.7h16c12.5,0,21,8.5,21,21.8c0,13.2-8.2,22.7-21.2,22.7h-15.8V484.7z M976,524h9.2
				c10.3,0,15.2-7.4,15.2-17.4c0-8.7-4.5-16.7-15.2-16.7H976V524z"/>
			<path class="st0" d="M1044.2,508.5h-22.1V524h24.3l-0.8,5.3h-29.5v-44.5h29.2v5.3h-23.1v13.3h22.1V508.5z"/>
			<path class="st0" d="M367.3,548.6H353v-5.3h34.9v5.3h-14.3v39.3h-6.2V548.6z"/>
			<path class="st0" d="M400.3,568.4v19.5h-6.1v-44.5h17.5c9.2,0,14.1,5,14.1,11.9c0,5.8-3.3,9.3-7.5,10.5c3.5,1,6.7,3.6,6.7,11.4
				v1.9c0,3.1-0.1,6.9,0.6,8.8h-6c-0.8-1.9-0.8-5.4-0.8-9.6v-0.9c0-6.2-1.8-9-9.7-9H400.3z M400.3,563.3h9.6c6.7,0,9.6-2.5,9.6-7.4
				c0-4.7-3-7.3-9-7.3h-10.2V563.3z"/>
			<path class="st0" d="M441.6,574.8l-4.7,13.1h-6.1l15.8-44.5h7.6l16.5,44.5h-6.6l-4.9-13.1H441.6z M457.7,569.5
				c-4.2-11.5-6.5-17.7-7.5-21.2h-0.1c-1.1,3.8-3.7,11.3-7,21.2H457.7z"/>
			<path class="st0" d="M477.8,543.4h16c12.5,0,21,8.5,21,21.8c0,13.2-8.2,22.7-21.2,22.7h-15.8V543.4z M483.9,582.7h9.2
				c10.3,0,15.2-7.4,15.2-17.4c0-8.7-4.5-16.7-15.2-16.7h-9.2V582.7z"/>
			<path class="st0" d="M529.8,543.4v26.8c0,10.4,5.7,13.2,11.3,13.2c6.6,0,11.2-3.1,11.2-13.2v-26.8h6.2v26.5
				c0,14.5-8.1,18.6-17.5,18.6c-9.3,0-17.4-4.5-17.4-18.2v-26.9H529.8z"/>
			<path class="st0" d="M605.2,575.2c-2,7.6-7.6,13.3-17.8,13.3c-13.4,0-20.1-10.1-20.1-22.7c0-12.1,6.7-23,20.3-23
				c10.6,0,16.3,6.1,17.6,13.5h-6.2c-1.5-4.8-4.7-8.4-11.7-8.4c-9.7,0-13.6,8.8-13.6,17.7c0,8.7,3.7,17.8,13.9,17.8
				c6.8,0,9.8-4,11.4-8.2H605.2z"/>
			<path class="st0" d="M622.8,548.6h-14.3v-5.3h34.9v5.3H629v39.3h-6.2V548.6z"/>
			<path class="st0" d="M655.8,543.4v44.5h-6.2v-44.5H655.8z"/>
			<path class="st0" d="M706.4,565.4c0,12.3-6.9,23.1-21,23.1c-13.2,0-20.5-10.1-20.5-22.9c0-12.8,7.5-22.9,21-22.9
				C698.6,542.7,706.4,552.1,706.4,565.4z M671.4,565.5c0,9.6,4.8,17.9,14.3,17.9c10.2,0,14.3-8.4,14.3-17.8
				c0-9.5-4.6-17.5-14.3-17.5C675.8,548,671.4,556,671.4,565.5z"/>
			<path class="st0" d="M715.6,587.9v-44.5h8.1c6.3,10.4,20,32.2,22.4,37.1h0.1c-0.4-5.6-0.4-12.7-0.4-20v-17.1h5.8v44.5H744
				c-5.8-9.6-20.1-33.2-22.8-38.2h-0.1c0.3,5,0.3,12.6,0.3,20.7v17.5H715.6z"/>
			<path class="st0" d="M782.5,575.5c1.2,5.3,4.8,8.1,11.2,8.1c6.8,0,9.5-3.2,9.5-7.3c0-4.4-2.2-6.8-11-9
				c-10.6-2.6-14.2-6.2-14.2-12.5c0-6.7,4.9-12.1,14.9-12.1c10.7,0,15.1,6.1,15.7,12h-6.3c-0.8-3.9-3.2-7.1-9.6-7.1
				c-5.3,0-8.3,2.4-8.3,6.6c0,4.1,2.5,5.7,10.2,7.6c12.7,3.1,15,8,15,13.8c0,7.2-5.4,12.9-16.3,12.9c-11.2,0-16.1-6.1-17-13H782.5z"
				/>
			<path class="st0" d="M827.4,548.6h-14.3v-5.3h34.9v5.3h-14.3v39.3h-6.2V548.6z"/>
			<path class="st0" d="M851.9,587.9v-9.6h6.1v9.6H851.9z"/>
			<path class="st0" d="M895.9,574.8c0,10.1-3.9,13.7-11.5,13.7c-1.8,0-3.5-0.2-4.8-0.5V583c0.8,0.2,2.7,0.3,4.1,0.3
				c5.3,0,6-3.9,6-8.2v-31.7h6.2V574.8z"/>
			<path class="st0" d="M935.4,567.2h-22.1v15.5h24.3l-0.8,5.3h-29.5v-44.5h29.2v5.3h-23.1V562h22.1V567.2z M935.1,530.1l-11,8.8h-6
				l9.4-8.8H935.1z"/>
			<path class="st0" d="M951.7,568.4v19.5h-6.1v-44.5h17.5c9.2,0,14.1,5,14.1,11.9c0,5.8-3.3,9.3-7.5,10.5c3.5,1,6.7,3.6,6.7,11.4
				v1.9c0,3.1-0.1,6.9,0.6,8.8h-6c-0.8-1.9-0.8-5.4-0.8-9.6v-0.9c0-6.2-1.8-9-9.7-9H951.7z M951.7,563.3h9.6c6.7,0,9.6-2.5,9.6-7.4
				c0-4.7-3-7.3-9-7.3h-10.2V563.3z"/>
			<path class="st0" d="M1025.8,565.4c0,12.3-6.9,23.1-21,23.1c-13.2,0-20.5-10.1-20.5-22.9c0-12.8,7.5-22.9,21-22.9
				C1017.9,542.7,1025.8,552.1,1025.8,565.4z M990.8,565.5c0,9.6,4.8,17.9,14.3,17.9c10.2,0,14.3-8.4,14.3-17.8
				c0-9.5-4.6-17.5-14.3-17.5C995.1,548,990.8,556,990.8,565.5z M1008.3,530.8l8.3,8.4h-6.1l-5.3-5.3l-5.6,5.3h-6l8.6-8.4H1008.3z"
				/>
			<path class="st0" d="M1073,569.1c0-8.2,0.1-16.6,0.3-21.3h-0.2c-1.9,7.3-8.9,26.2-14,40.2h-5.5c-3.8-11.4-11.1-32.6-13.1-40.2
				h-0.2c0.3,5.1,0.5,15,0.5,22.6v17.6h-5.8v-44.5h9.2c4.9,13.7,11,31.3,12.5,37h0.1c1-4.4,8.2-23.7,13.3-37h8.9v44.5h-6V569.1z"/>
			<path class="st0" d="M1118.7,567.2h-22.1v15.5h24.3l-0.8,5.3h-29.5v-44.5h29.2v5.3h-23.1V562h22.1V567.2z"/>
			<path class="st0" d="M606.6,607.5c-4.6,6.1-8.4,14-8.4,23.9c0,9,3.1,17.4,8.4,24.5h-4.9c-4.1-5.4-8-13.8-8-24.5
				c0-10.6,4.1-18.6,8-23.8H606.6z"/>
			<path class="st0" d="M636.9,629.4h-18.4v12.9h20.2l-0.7,4.4h-24.6v-37.1h24.3v4.4h-19.3V625h18.4V629.4z M636.7,598.4l-9.2,7.4
				h-5l7.8-7.4H636.7z"/>
			<path class="st0" d="M653,613.9H641v-4.4h29v4.4h-11.9v32.7H653V613.9z"/>
			<path class="st0" d="M680.2,609.5v22.3c0,8.7,4.7,11,9.4,11c5.5,0,9.3-2.6,9.3-11v-22.3h5.2v22c0,12.1-6.7,15.5-14.6,15.5
				c-7.8,0-14.5-3.7-14.5-15.2v-22.4H680.2z"/>
			<path class="st0" d="M713.5,609.5h13.4c10.5,0,17.5,7.1,17.5,18.2c0,11-6.9,18.9-17.7,18.9h-13.2V609.5z M718.6,642.3h7.7
				c8.6,0,12.7-6.2,12.7-14.5c0-7.2-3.7-13.9-12.7-13.9h-7.7V642.3z"/>
			<path class="st0" d="M757.2,609.5v37.1H752v-37.1H757.2z"/>
			<path class="st0" d="M772.1,635.6l-3.9,11H763l13.2-37.1h6.3l13.7,37.1h-5.5l-4-11H772.1z M785.5,631.3
				c-3.5-9.6-5.4-14.8-6.2-17.7h-0.1c-0.9,3.2-3.1,9.4-5.9,17.7H785.5z"/>
			<path class="st0" d="M802.2,646.6v-37.1h6.7c5.3,8.7,16.6,26.9,18.7,30.9h0.1c-0.4-4.7-0.3-10.6-0.3-16.7v-14.3h4.8v37.1h-6.3
				c-4.8-8-16.7-27.7-19-31.8h-0.1c0.3,4.2,0.3,10.5,0.3,17.2v14.6H802.2z"/>
			<path class="st0" d="M849.5,613.9h-11.9v-4.4h29v4.4h-11.9v32.7h-5.2V613.9z"/>
			<path class="st0" d="M869.1,655.8c4.6-6.1,8.4-14,8.4-23.9c0-9-3.1-17.4-8.4-24.5h4.9c4,5.4,8,13.8,8,24.5
				c0,10.6-4.1,18.6-8,23.8H869.1z"/>
		</g>
	</g>
	<g>
		<g>
			<path class="st0" d="M556,374.5c0,10.2-3.3,14.8-13,14.8c-1.6,0-4.4-0.1-6-0.6v-7.6c0.8,0.1,3,0.3,4.4,0.3c4.4,0,5-2.9,5-6.3
				v-30.6h9.5V374.5z"/>
			<path class="st0" d="M596.6,369.6h-21.1v11.2h23.3l-1.1,7.8h-31.4v-44.1h31.3v7.8h-22v9.5h21.1V369.6z"/>
			<path class="st0" d="M642.8,372.1c0-7.5,0.1-16,0.3-21h-0.3c-2.1,9-6.5,23.7-10.7,37.5H624c-3.2-12.1-7.8-28.8-9.7-37.6h-0.3
				c0.4,5.2,0.6,14.3,0.6,21.8v15.8h-8.7v-44.1H620c3.4,11.5,7.3,26,8.6,32.6h0.1c1.1-5.8,5.9-21.3,9.6-32.6H652v44.1h-9.2V372.1z"
				/>
			<path class="st0" d="M685.1,388.6l-11.2-44.1H684c4.1,20.3,6,29.3,6.5,34.1h0.1c1.7-8.1,5.9-23.5,8.5-34.1h8.6
				c2.3,8.5,6.7,25.6,8.2,33.7h0.1c1.5-9.7,5.8-26.8,7.4-33.7h9.3l-12,44.1h-9.9c-2.3-9.8-6.2-24-7.8-31.6h-0.1
				c-1.6,7.9-5.6,22.7-7.9,31.6H685.1z"/>
			<path class="st0" d="M747.2,378.4l-3.4,10.2h-9.4l15-44.1h12l15.6,44.1h-10l-3.6-10.2H747.2z M761.3,370.6
				c-3.1-9.3-5.1-15.3-6.2-19.2H755c-1.1,4.4-3.3,11.3-5.8,19.2H761.3z"/>
			<path class="st0" d="M783,344.5h9.5v36.3h22l-1.1,7.8H783V344.5z"/>
			<path class="st0" d="M820.5,344.5h9.4v19.7c2.9-3.4,12-13.4,17.6-19.7h11.4l-17.7,18.3l18.4,25.8h-11.4L834.6,369l-4.7,4.5v15.2
				h-9.4V344.5z"/>
			<path class="st0" d="M894.1,369.6H873v11.2h23.3l-1.1,7.8h-31.4v-44.1h31.3v7.8h-22v9.5h21.1V369.6z"/>
			<path class="st0" d="M912.7,371v17.7h-9.3v-44.1h19.4c9.6,0,14.8,5.3,14.8,12.1c0,5.9-3.2,9.1-6.4,10.4c2.2,0.8,5.5,3.1,5.5,11
				v2.2c0,3,0,6.3,0.6,8.4h-9c-0.8-1.9-0.9-5.2-0.9-9.9v-0.6c0-4.8-1.2-7.1-8.3-7.1H912.7z M912.7,363.4h8c5.2,0,7.2-2,7.2-5.7
				c0-3.6-2.3-5.6-7-5.6h-8.2V363.4z"/>
		</g>
	</g>
</g>
</svg>
