<svg id="svg2" xmlns="http://www.w3.org/2000/svg" viewBox="0 0 1475.4 801.7"><defs><style>.cls-1{fill:#fff;}</style></defs><path class="cls-1" d="M334.39,694.85C337.3,664.94,324,639,324,638.94s-29,.81-28.14,50.14a120.22,120.22,0,0,0,10.61,47.57,325.31,325.31,0,0,1-43.8-32.14q-2.81-2.47-5.59-5c4.36-1.77,22.33-11.18,27.81-48.11C289.31,621.67,276,596,276,596h0s-30,4.33-31.43,45.84c-1,30.77,6.79,49.17,10.09,55.51A594.76,594.76,0,0,1,205,646.94c12.83-9.67,28.75-20,36.71-35.38,12-23.28,9.37-36.9,11.14-58.38-15.35,4.5-31.9,9-43.47,41-6.72,18.57-1,27-6.08,50.82a423.42,423.42,0,0,1-34.08-45.23c14.26-6.49,31-10.45,43.65-30.43,14-22.17,11-22.34,23.75-58.74-15.93,1.5-33,2.76-50.47,32-10.08,16.88-8.84,31.86-18.5,54.73a319.89,319.89,0,0,1-27.77-53.71c15.79-3.77,36.68-3.1,56.83-24.27,20.67-21.72,28-43.29,32.83-59.24-15.92,1.5-40.42.81-59.81,26.17-17,22.25-15.93,29.27-31.19,53.84-2.05-5.37-4-10.8-5.68-16.3A290,290,0,0,1,124,486.87c10.65-.21,36.06-.87,58.6-21.33,22.2-20.15,32.55-43.35,38.69-58.85-16,.22-39.16-4.62-63.6,22.65-17.95,20-24.42,34.7-34.58,52.12a312.06,312.06,0,0,1-2.92-66.78c9.37.25,38.56,1.44,65-17.66,24.31-17.54,36.08-40.83,43.92-55.55-15.92-1.57-39.38-9.34-66.72,15-20.91,18.65-29.08,37.38-42,55q.93-12.66,2.85-25.22a349.07,349.07,0,0,1,11.72-49.44c9.48,1.86,31.83,5.46,60.59-4.95,31-11.21,48.35-42.42,52.61-49.91-15.35-4.51-33.7-10.21-67.41,6.9-20,10.15-34,25.41-41.89,35.82,6.21-18.5,13.38-36.59,20.52-53.9,8.9,2.45,31.31,8.12,61.47-.41,31.71-9,51.27-38.86,56-46-15-5.6-32.88-12.6-67.73,2.06-21.46,9-36.87,24-45.31,33.84,10.56-23.85,22.58-43.72,36.67-63.91,6.21,3,19.79,10,52.08,7.05,40.86-3.77,57.89-29.83,57.89-29.83-13.82-8-27.26-13.1-55.27-8.18a104.66,104.66,0,0,0-49.12,23.09c12-16.77,24.74-33.3,37.95-49.33,6.75,2.91,24.27,9.94,57,6.92,40.87-3.76,62.19-31.08,62.19-31.08-13.82-8-35.34-12.61-63.35-7.68a106,106,0,0,0-47.6,21.95q13.26-15.61,27.15-30.41c4.41-4.68,9.2-9.25,14.2-13.66,9.67.11,44.82-.28,63.65-11.21C381.9,59.67,406,28.69,407.93,19.64c0,0-38.71-17-74.8,14-22.08,19-34.55,37.49-39.61,46.65-4.77,4.24-9.38,8.61-13.7,13.12q-7.29,7.59-14.54,15.5c6.72-10.46,14.43-25.49,17.56-43,5-28,0-58.39-5.31-66,0,0-30.25,18.79-32.45,66.33-1.51,32.63,4.8,49.7,7.75,56.42C237.59,140,222.78,158,209,176.2c6.12-11.67,14.49-30.19,17.74-49.41,5.05-29.91-7.08-62.49-9.79-65.48,0,0-31.65,13.91-30.47,67.3.68,30.38,11.25,52.29,14.49,58.32-1.09,1.48-2.19,3-3.26,4.45a627.07,627.07,0,0,0-34,52.88c3.71-11.71,8.59-31.48,7.53-52-2.33-44.77-32.67-63.68-33.39-63.71,0,0-29.25,26.38-12.45,83.15,8.54,28.86,26.94,39.78,32.68,42.57-3.9,7.14-7.42,14-10.34,20.37-7,15.16-12.7,28.3-17.65,41.51,1.58-12.56,2.7-29.51.6-46-6.15-48.3-43.73-58.52-44.45-58.45,0,0-12.88,44.73,5.44,83,14.25,29.76,26.39,38,31.89,40.32-3.38,10.68-6.45,22-9.43,35q-2.89,12.59-4.75,25.25c-.65-14.5-2.74-36.36-9.12-54.72C85.4,298,45,289.62,44.34,289.79c0,0-6.54,45.52,16.85,80.95,20.41,30.92,39.88,38.37,46.2,40.05a343.39,343.39,0,0,0,.52,71.47c-8.35-15.06-11.42-42-26.93-64.52-25.57-37.11-67.73-34.42-68.36-34.07,0,0,4.51,46.23,36.48,74.18,26.2,22.9,50,29.11,59.56,30.76a367.34,367.34,0,0,0,7.26,39.22q.8,3.3,1.7,6.59C110,524.12,89.12,498.64,61,485.07,26.17,468.29.75,482.58.12,483.14c0,0,17.87,32.67,50.76,48.32,38,18.1,62,10.79,68.26,8.21a255.39,255.39,0,0,0,22,50.92c-9.24-8.36-30-25.09-55.88-33-46.07-14.16-67.73,13.63-68.36,14.33,0,0,18.88,23.76,58.27,34.18,44.52,11.77,64.56-3.74,69.76-8.91,13.58,22.87,30.28,44.33,48.53,64.4-10.41-8.09-31.91-23.24-52.89-28.5C90,620.4,73.31,649.78,73.31,649.78s18.77,22.52,59.27,32.41c41.57,10.15,62.42-10,66.51-14.5,14.61,15.59,30.08,30.32,45.63,44.2-8.07-3.5-34.22-13.88-59.24-13.69-52.06.38-55.18,28-55.18,28s18.84,13.59,60.54,13c42.9-.57,54.17-21,56.1-25.42l3.11,2.75c16.61,14.6,35.33,27.35,55,38.59-12-3.18-38.77-9.24-61.2-6.6-47.42,5.56-51.79,35-51.79,35s19,11.81,59.82,7.32c41.52-4.57,55.77-26.8,58.8-32.56,32.45,17.91,67.19,31.87,99.28,43.35l5.53-14.63c-34.24-12.24-69.81-27.14-102.42-46.43C319.2,736.08,331.6,723.48,334.39,694.85Z" transform="translate(-0.12 0.01)"/><polygon class="cls-1" points="323.88 638.95 323.88 638.95 323.88 638.95 323.88 638.95"/><path class="cls-1" d="M1390.41,557.55c-26,8-46.76,24.77-56,33.11a255.06,255.06,0,0,0,22-51c6.24,2.57,30.2,10,68.3-8.19,32.89-15.66,50.77-48.33,50.77-48.33-.63-.56-26-14.84-60.86,1.93-28.23,13.61-49.12,39.19-56.71,49.43.61-2.21,1.18-4.44,1.72-6.67a367.06,367.06,0,0,0,7.26-39.23c9.53-1.64,33.36-7.85,59.56-30.75,32-28,36.48-74.18,36.48-74.18-.63-.35-42.79-3-68.36,34.07-15.51,22.52-18.58,49.46-26.93,64.52a343.29,343.29,0,0,0,.52-71.46c6.25-1.64,25.78-9,46.26-40.06,23.39-35.43,16.85-80.95,16.85-80.95-.7-.17-41.06,8.19-55.84,50.76-6.43,18.5-8.5,40.55-9.13,55.05q-1.89-12.83-4.8-25.58c-3-12.94-6-24.26-9.42-34.94,5.48-2.27,17.65-10.5,31.93-40.34,18.33-38.3,5.44-83,5.44-83-.72-.07-38.3,10.15-44.45,58.45-2.11,16.6-1,33.65.63,46.24-5-13.29-10.71-26.48-17.73-41.72-2.92-6.32-6.43-13.22-10.32-20.35,5.68-2.75,24.16-13.65,32.72-42.59,16.8-56.77-12.45-83.15-12.45-83.15-.72,0-31.06,18.94-33.39,63.71-1.07,20.62,3.89,40.51,7.61,52.2a624.62,624.62,0,0,0-34.18-53.12q-1.62-2.24-3.27-4.47c3.25-6,13.8-27.95,14.48-58.3,1.18-53.39-30.47-67.3-30.47-67.3-2.71,3-14.84,35.57-9.79,65.48,3.24,19.17,11.58,37.65,17.7,49.33C1252.77,158,1238,140,1222.78,122.77c3-6.7,9.27-23.77,7.76-56.45C1228.34,18.79,1198.09,0,1198.09,0c-5.27,7.6-10.31,38-5.31,66,3.14,17.53,10.89,32.61,17.63,43.06-4.86-5.29-9.74-10.51-14.63-15.6-4.29-4.46-8.85-8.8-13.57-13-5-9.12-17.51-27.72-39.68-46.77-36.09-31-74.8-14-74.8-14,1.9,9.05,26,40,50.62,54.31,18.81,10.92,53.93,11.32,63.62,11.21,5,4.41,9.8,9,14.21,13.66,9.23,9.81,18.27,20,27.09,30.35a105.91,105.91,0,0,0-47.52-21.89c-28-4.93-49.53-.37-63.35,7.68,0,0,21.32,27.32,62.19,31.08,32.73,3,50.25-4,57-6.91,13.25,16.07,26,32.65,38,49.46a104.6,104.6,0,0,0-49.28-23.23c-28-4.92-41.45.13-55.27,8.18,0,0,17,26.06,57.89,29.83,32.38,3,46-4.06,52.12-7.07,14.09,20.18,26.11,40,36.67,63.86-8.46-9.82-23.84-24.76-45.26-33.77-34.85-14.66-52.74-7.66-67.73-2.06,4.78,7.16,24.34,37,56,46,30.14,8.52,52.53,2.87,61.45.42,7.15,17.34,14.33,35.46,20.55,54-7.89-10.41-21.9-25.73-42-35.92-33.71-17.11-52.06-11.41-67.4-6.9,4.25,7.49,21.62,38.7,52.61,49.91,28.79,10.43,51.16,6.8,60.62,4.94a349.72,349.72,0,0,1,11.72,49.44q1.93,12.6,2.86,25.32c-13-17.6-21.15-36.37-42.1-55.05-27.34-24.37-50.8-16.6-66.71-15,7.83,14.72,19.6,38,43.92,55.55,26.54,19.14,55.8,17.91,65.1,17.66a312.34,312.34,0,0,1-2.92,66.74c-10.15-17.4-16.62-32.05-34.56-52.08-24.44-27.27-47.61-22.43-63.6-22.65,6.14,15.5,16.49,38.7,38.69,58.85,22.52,20.44,47.9,21.12,58.58,21.33a288.19,288.19,0,0,1-8.86,36.9c-1.71,5.51-3.62,10.94-5.67,16.31-15.26-24.57-14.18-31.59-31.2-53.84-19.39-25.36-43.89-24.67-59.81-26.17,4.88,15.95,12.16,37.52,32.84,59.24,20.15,21.17,41,20.5,56.82,24.27A319.1,319.1,0,0,1,1308,597.29c-9.66-22.87-8.42-37.85-18.5-54.73-17.44-29.22-34.54-30.48-50.47-32,12.71,36.4,9.76,36.57,23.75,58.74,12.6,20,29.39,23.94,43.65,30.43A424.8,424.8,0,0,1,1272.33,645c-5.1-23.9.63-32.28-6.09-50.87-11.57-32-28.12-36.48-43.47-41,1.77,21.48-.9,35.1,11.14,58.38,8,15.4,23.91,25.73,36.74,35.4a591.55,591.55,0,0,1-49.71,50.41c3.31-6.34,11.13-24.74,10.1-55.52-1.39-41.51-31.42-45.84-31.42-45.84h0s-13.3,25.66-8.88,55.41c5.48,36.94,23.46,46.35,27.82,48.11q-2.79,2.51-5.6,5a325,325,0,0,1-43.83,32.17,120.31,120.31,0,0,0,10.63-47.59c.86-49.35-28.14-50.14-28.14-50.14h0s-13.31,26-10.4,55.91c2.79,28.65,15.21,41.25,21.32,45.8-32.6,19.29-68.17,34.18-102.42,46.43l5.5,14.62c32.11-11.48,66.87-25.45,99.34-43.38,3,5.71,17.22,28,58.82,32.59,40.8,4.49,59.82-7.32,59.82-7.32s-4.37-29.44-51.78-35c-22.54-2.65-49.48,3.47-61.36,6.64,19.7-11.25,38.45-24,55.08-38.63l3.11-2.74c1.94,4.41,13.21,24.84,56.09,25.41,41.7.56,60.54-13,60.54-13s-3.12-27.66-55.18-28c-25-.19-51.12,10.18-59.22,13.68,15.56-13.89,31-28.63,45.67-44.23,4,4.46,24.84,24.73,66.54,14.54,40.5-9.89,59.28-32.41,59.28-32.41s-16.73-29.38-67.23-16.73c-21.18,5.31-42.86,20.69-53.16,28.72,18.33-20.14,35.11-41.68,48.74-64.64,5.16,5.14,25.19,20.72,69.78,8.93,39.39-10.42,58.27-34.18,58.27-34.18C1458.14,571.18,1436.48,543.39,1390.41,557.55Z" transform="translate(-0.12 0.01)"/><path class="cls-1" d="M308.66,223.61h38.76c18.92,0,31.65,10.54,31.65,26.94,0,18.87-14.48,27.54-32.22,27.54H332.73v29.58H308.66Zm24.07,37.23h10.18c7,0,12-2.89,12-10,0-7.24-5.05-10.05-11.93-10.05H332.73Z" transform="translate(-0.12 0.01)"/><path class="cls-1" d="M414.47,275.85v31.82H390.8V223.61h41.45c19.73,0,29.33,10.58,29.33,23.28,0,11.59-6.75,17.53-12.57,19.93,5.2,1.83,10.9,7.36,10.9,21.64V292c0,5.24.16,12,1.1,15.66H437.79c-1.42-3.62-1.79-9.72-1.79-18.39v-2.11c0-7.33-1.75-11.32-12.74-11.32Zm0-17.08H426c8.26,0,11.27-3.42,11.27-9.12s-3.58-9-11.15-9H414.47Z" transform="translate(-0.12 0.01)"/><path class="cls-1" d="M537.09,273.57H498.72v16h42.8l-2.72,18.14H475.25V223.61h63.47v18.15h-40v13.67h38.37Z" transform="translate(-0.12 0.01)"/><path class="cls-1" d="M623.18,280.08c0-13.18.29-30.07.65-40h-.65c-3.54,18-9.28,43-15.51,67.62H588.11c-4.88-23.72-10.5-49-13.8-67.63h-.73c.69,9.89,1.14,26.33,1.14,40.73v26.9H553V223.61h35.14c4.23,17.22,9.16,42,11.07,54.41h.41c2.16-13.42,7.9-36,12.86-54.41h34.13v84.06H623.18Z" transform="translate(-0.12 0.01)"/><path class="cls-1" d="M688.51,223.61v84.06H664.06V223.61Z" transform="translate(-0.12 0.01)"/><path class="cls-1" d="M767.88,273.57H729.51v16h42.81l-2.73,18.14H706.05V223.61h63.46v18.15h-40v13.67h38.37Z" transform="translate(-0.12 0.01)"/><path class="cls-1" d="M807.22,275.85v31.82H783.55V223.61H825c19.73,0,29.33,10.58,29.33,23.28,0,11.59-6.75,17.53-12.57,19.93,5.21,1.83,10.9,7.36,10.9,21.64V292c0,5.24.17,12,1.1,15.66H830.54c-1.42-3.62-1.79-9.72-1.79-18.39v-2.11c0-7.33-1.75-11.32-12.74-11.32Zm0-17.08h11.56c8.26,0,11.27-3.42,11.27-9.12s-3.58-9-11.15-9H807.22Z" transform="translate(-0.12 0.01)"/><path class="cls-1" d="M895,223.61h38.76c18.92,0,31.65,10.54,31.65,26.94,0,18.87-14.48,27.54-32.22,27.54H919.05v29.58H895Zm24.07,37.23h10.18c7,0,12-2.89,12-10,0-7.24-5-10.05-11.93-10.05H919.05Z" transform="translate(-0.12 0.01)"/><path class="cls-1" d="M1000.79,275.85v31.82H977.12V223.61h41.45c19.73,0,29.33,10.58,29.33,23.28,0,11.59-6.75,17.53-12.57,19.93,5.21,1.83,10.9,7.36,10.9,21.64V292c0,5.24.16,12,1.1,15.66h-23.22c-1.43-3.62-1.79-9.72-1.79-18.39v-2.11c0-7.33-1.75-11.32-12.74-11.32Zm0-17.08h11.56c8.26,0,11.27-3.42,11.27-9.12s-3.58-9-11.15-9h-11.68Z" transform="translate(-0.12 0.01)"/><path class="cls-1" d="M1086,223.61v84.06h-24.45V223.61Z" transform="translate(-0.12 0.01)"/><path class="cls-1" d="M1149.49,307.67l-14.29-27.42H1135l-14.57,27.42h-26l26.25-41.91-25.68-42.15h28.18l13.27,26h.33l13.67-26H1176l-25.64,39.67,27.18,44.39Z" transform="translate(-0.12 0.01)"/><path class="cls-1" d="M437.42,470.52V435.34a26.91,26.91,0,0,1-8.66,3.56v-4.71a25.6,25.6,0,0,0,10.23-6h4.4v42.33Z" transform="translate(-0.12 0.01)"/><path class="cls-1" d="M479.72,433.45H462.15c-.38,3.31-1.41,9.53-1.82,11.75,1.77-1.93,4.51-3.31,8.74-3.31,7.75,0,12.71,5.4,12.71,14,0,8.21-4.32,15.42-14.61,15.42-7.58,0-13.07-4.18-14.16-11.37H459a8.11,8.11,0,0,0,8.41,6.54c5.64,0,8.42-4,8.42-10.15,0-5.37-2.22-9.46-8-9.46-5,0-7.07,2.11-8.53,5.43l-5.45-1c1.25-5.51,2.87-17.58,3.49-22.92h23.25Z" transform="translate(-0.12 0.01)"/><path class="cls-1" d="M507.34,446H492.61v10.3h16.18l-.53,3.5H488.59V430.16H508v3.5H492.61v8.88h14.73Zm-12.15-24.81,5.81,5.88h-3.93l-7-5.88Z" transform="translate(-0.12 0.01)"/><path class="cls-1" d="M539.5,447.3c0-5.49.06-11.09.19-14.23h-.17c-1.27,4.89-5.95,17.44-9.32,26.77h-3.66c-2.55-7.63-7.39-21.71-8.72-26.83h-.14c.23,3.43.33,10,.33,15.08v11.75h-3.85V430.16h6.12c3.3,9.11,7.32,20.85,8.33,24.68h.07c.7-2.93,5.46-15.8,8.88-24.68h5.94v29.68h-4Z" transform="translate(-0.12 0.01)"/><path class="cls-1" d="M570.26,446H555.53v10.3h16.18l-.53,3.5H551.51V430.16H571v3.5H555.53v8.88h14.73Z" transform="translate(-0.12 0.01)"/><path class="cls-1" d="M630.59,457.82c-2,7.61-7.64,13.26-17.82,13.26-13.37,0-20.08-10.1-20.08-22.68,0-12.1,6.74-23,20.32-23,10.59,0,16.29,6.05,17.59,13.49h-6.16c-1.54-4.75-4.7-8.39-11.67-8.39-9.69,0-13.64,8.8-13.64,17.75,0,8.65,3.73,17.77,13.9,17.77,6.82,0,9.76-4,11.38-8.16Z" transform="translate(-0.12 0.01)"/><path class="cls-1" d="M678.5,448c0,12.26-6.91,23.15-21,23.15-13.16,0-20.48-10.13-20.48-22.9s7.51-22.9,21-22.9C670.63,425.36,678.5,434.75,678.5,448Zm-35,.06c0,9.55,4.85,17.86,14.31,17.86,10.21,0,14.25-8.43,14.25-17.83s-4.58-17.52-14.25-17.52C647.86,430.58,643.5,438.62,643.5,448.07Z" transform="translate(-0.12 0.01)"/><path class="cls-1" d="M687.68,470.52V426h8.1c6.32,10.38,20,32.24,22.43,37.08h.09c-.43-5.64-.39-12.71-.39-20V426h5.79v44.52h-7.61c-5.81-9.6-20.08-33.21-22.83-38.22h-.09c.32,5,.33,12.65.33,20.68v17.54Z" transform="translate(-0.12 0.01)"/><path class="cls-1" d="M770.81,457.82c-2,7.61-7.63,13.26-17.81,13.26-13.37,0-20.08-10.1-20.08-22.68,0-12.1,6.73-23,20.32-23,10.59,0,16.29,6.05,17.59,13.49h-6.16c-1.55-4.75-4.7-8.39-11.67-8.39-9.69,0-13.64,8.8-13.64,17.75,0,8.65,3.73,17.77,13.89,17.77,6.83,0,9.77-4,11.38-8.16Z" transform="translate(-0.12 0.01)"/><path class="cls-1" d="M818.73,448c0,12.26-6.91,23.15-21,23.15-13.16,0-20.48-10.13-20.48-22.9s7.51-22.9,21-22.9C810.86,425.36,818.73,434.75,818.73,448Zm-35,.06c0,9.55,4.85,17.86,14.31,17.86,10.21,0,14.25-8.43,14.25-17.83s-4.58-17.52-14.25-17.52C788.09,430.58,783.73,438.62,783.73,448.07Z" transform="translate(-0.12 0.01)"/><path class="cls-1" d="M833.93,426v26.77c0,10.39,5.67,13.21,11.31,13.21,6.59,0,11.21-3.06,11.21-13.21V426h6.2v26.45c0,14.5-8.06,18.63-17.54,18.63s-17.42-4.45-17.42-18.23V426Z" transform="translate(-0.12 0.01)"/><path class="cls-1" d="M880.23,451v19.49h-6.09V426h17.54c9.19,0,14.09,5,14.09,11.93,0,5.8-3.32,9.29-7.52,10.47,3.54,1,6.71,3.65,6.71,11.4v1.92c0,3.07-.13,6.92.6,8.8h-6c-.8-1.92-.76-5.38-.76-9.6V460c0-6.24-1.75-9-9.68-9Zm0-5.15h9.57c6.7,0,9.63-2.52,9.63-7.44,0-4.65-3-7.29-9-7.29H880.23Z" transform="translate(-0.12 0.01)"/><path class="cls-1" d="M918.67,458.08c1.2,5.28,4.82,8.1,11.18,8.1,6.82,0,9.53-3.17,9.53-7.31,0-4.41-2.19-6.85-11-9-10.6-2.57-14.2-6.22-14.2-12.46,0-6.69,4.94-12.07,14.92-12.07,10.68,0,15.07,6.14,15.67,12h-6.26c-.77-3.87-3.19-7.11-9.63-7.11-5.32,0-8.31,2.39-8.31,6.56s2.47,5.72,10.23,7.6c12.71,3.09,15,8,15,13.77,0,7.25-5.38,12.87-16.32,12.87-11.21,0-16.1-6.08-17-13Z" transform="translate(-0.12 0.01)"/><path class="cls-1" d="M970.7,426h16c12.55,0,21,8.53,21,21.8s-8.25,22.72-21.22,22.72H970.7Zm6.15,39.32h9.2c10.34,0,15.24-7.43,15.24-17.4,0-8.69-4.47-16.72-15.22-16.72h-9.22Z" transform="translate(-0.12 0.01)"/><path class="cls-1" d="M1045,449.82H1023v15.45h24.25l-.78,5.25h-29.51V426h29.17v5.25H1023v13.32H1045Z" transform="translate(-0.12 0.01)"/><path class="cls-1" d="M368.66,489.94H354.33v-5.25h34.86v5.25H374.85v39.27h-6.19Z" transform="translate(-0.12 0.01)"/><path class="cls-1" d="M401.6,509.72v19.49h-6.09V484.69h17.54c9.19,0,14.09,5,14.09,11.93,0,5.8-3.32,9.29-7.52,10.48,3.54,1,6.71,3.65,6.71,11.39v1.93c0,3.06-.13,6.91.6,8.79h-6c-.8-1.92-.76-5.38-.76-9.6v-.92c0-6.24-1.75-9-9.68-9Zm0-5.15h9.57c6.7,0,9.63-2.52,9.63-7.43,0-4.66-3-7.3-9-7.3H401.6Z" transform="translate(-0.12 0.01)"/><path class="cls-1" d="M443.87,516.07l-4.7,13.14h-6.12l15.81-44.52h7.6l16.48,44.52h-6.55l-4.85-13.14ZM460,510.82c-4.17-11.55-6.48-17.75-7.45-21.18h-.06c-1.09,3.81-3.67,11.3-7,21.18Z" transform="translate(-0.12 0.01)"/><path class="cls-1" d="M479.9,484.69h16c12.54,0,21,8.53,21,21.8s-8.25,22.72-21.23,22.72H479.9ZM486.05,524h9.2c10.35,0,15.25-7.42,15.25-17.4,0-8.69-4.48-16.72-15.22-16.72h-9.23Z" transform="translate(-0.12 0.01)"/><path class="cls-1" d="M532.15,484.69v26.78c0,10.38,5.67,13.2,11.31,13.2,6.59,0,11.21-3.06,11.21-13.2V484.69h6.2v26.46c0,14.5-8,18.62-17.54,18.62-9.33,0-17.42-4.45-17.42-18.22V484.69Z" transform="translate(-0.12 0.01)"/><path class="cls-1" d="M607.53,516.51c-2,7.61-7.64,13.26-17.81,13.26-13.37,0-20.08-10.09-20.08-22.68,0-12.1,6.73-23,20.32-23,10.59,0,16.29,6.06,17.59,13.5h-6.16c-1.55-4.76-4.7-8.4-11.67-8.4-9.7,0-13.64,8.81-13.64,17.75,0,8.66,3.73,17.77,13.89,17.77,6.83,0,9.77-3.95,11.38-8.16Z" transform="translate(-0.12 0.01)"/><path class="cls-1" d="M625.74,489.94H611.42v-5.25h34.85v5.25H631.93v39.27h-6.19Z" transform="translate(-0.12 0.01)"/><path class="cls-1" d="M658.74,484.69v44.52h-6.15V484.69Z" transform="translate(-0.12 0.01)"/><path class="cls-1" d="M709.36,506.71c0,12.25-6.9,23.14-21,23.14-13.16,0-20.48-10.13-20.48-22.9s7.51-22.9,21-22.9C701.49,484.05,709.36,493.45,709.36,506.71Zm-35,.05c0,9.56,4.85,17.87,14.31,17.87,10.21,0,14.25-8.43,14.25-17.83s-4.58-17.52-14.25-17.52C678.72,489.28,674.36,497.32,674.36,506.76Z" transform="translate(-0.12 0.01)"/><path class="cls-1" d="M718.54,529.21V484.69h8.1c6.33,10.39,20,32.25,22.43,37.09h.09c-.43-5.65-.39-12.71-.39-20v-17.1h5.79v44.52H747c-5.81-9.6-20.08-33.21-22.83-38.21H724c.32,5,.33,12.65.33,20.68v17.53Z" transform="translate(-0.12 0.01)"/><path class="cls-1" d="M785.42,516.78c1.2,5.27,4.82,8.1,11.18,8.1,6.82,0,9.53-3.18,9.53-7.32,0-4.41-2.19-6.84-11-9-10.6-2.57-14.2-6.21-14.2-12.45,0-6.7,4.94-12.08,14.92-12.08,10.68,0,15.07,6.15,15.67,12h-6.26c-.77-3.88-3.19-7.11-9.63-7.11-5.32,0-8.31,2.38-8.31,6.55s2.47,5.73,10.23,7.6c12.71,3.09,15,8,15,13.78,0,7.24-5.38,12.86-16.32,12.86-11.21,0-16.1-6.08-17-13Z" transform="translate(-0.12 0.01)"/><path class="cls-1" d="M830.12,489.94H815.8v-5.25h34.86v5.25H836.32v39.27h-6.2Z" transform="translate(-0.12 0.01)"/><path class="cls-1" d="M850.19,529.21v-9.58h6.15v9.58Z" transform="translate(-0.12 0.01)"/><path class="cls-1" d="M894.15,516.13c0,10.07-3.92,13.72-11.52,13.72a22.16,22.16,0,0,1-4.79-.46v-5.11a26.91,26.91,0,0,0,4.14.3c5.3,0,6-3.9,6-8.21V484.69h6.16Z" transform="translate(-0.12 0.01)"/><path class="cls-1" d="M933.62,508.51H911.54V524H935.8l-.79,5.25h-29.5V484.69h29.17v5.25H911.54v13.32h22.08Zm-.25-37.09-11,8.82h-6l9.38-8.82Z" transform="translate(-0.12 0.01)"/><path class="cls-1" d="M949.9,509.72v19.49h-6.1V484.69h17.55c9.18,0,14.08,5,14.08,11.93,0,5.8-3.32,9.29-7.51,10.48,3.54,1,6.71,3.65,6.71,11.39v1.93c0,3.06-.13,6.91.6,8.79h-6c-.81-1.92-.77-5.38-.77-9.6v-.92c0-6.24-1.75-9-9.68-9Zm0-5.15h9.57c6.7,0,9.62-2.52,9.62-7.43,0-4.66-3-7.3-9-7.3H949.9Z" transform="translate(-0.12 0.01)"/><path class="cls-1" d="M1024.07,506.71c0,12.25-6.9,23.14-21,23.14-13.16,0-20.47-10.13-20.47-22.9s7.5-22.9,21-22.9C1016.21,484.05,1024.07,493.45,1024.07,506.71Zm-35,.05c0,9.56,4.84,17.87,14.3,17.87,10.22,0,14.26-8.43,14.26-17.83s-4.59-17.52-14.26-17.52C993.43,489.28,989.08,497.32,989.08,506.76Zm17.49-34.68,8.32,8.43h-6.1l-5.32-5.26-5.62,5.26h-6l8.65-8.43Z" transform="translate(-0.12 0.01)"/><path class="cls-1" d="M1071.25,510.39c0-8.22.09-16.63.29-21.34h-.25c-1.91,7.35-8.93,26.16-14,40.16h-5.49c-3.82-11.45-11.08-32.56-13.08-40.25h-.2c.34,5.15.5,15,.5,22.62v17.63h-5.79V484.69h9.19c5,13.67,11,31.28,12.48,37h.11c1-4.39,8.19-23.69,13.31-37h8.92v44.52h-6Z" transform="translate(-0.12 0.01)"/><path class="cls-1" d="M1117.39,508.51h-22.08V524h24.26l-.79,5.25h-29.5V484.69h29.17v5.25h-23.14v13.32h22.08Z" transform="translate(-0.12 0.01)"/><path class="cls-1" d="M433.89,543.39h16c12.55,0,21,8.53,21,21.8s-8.25,22.72-21.22,22.72H433.89Zm6.16,39.32h9.2c10.34,0,15.24-7.43,15.24-17.4,0-8.69-4.47-16.72-15.22-16.72h-9.22Z" transform="translate(-0.12 0.01)"/><path class="cls-1" d="M508.24,567.21H486.16v15.45h24.25l-.78,5.25H480.12V543.39h29.17v5.25H486.16V562h22.08Z" transform="translate(-0.12 0.01)"/><path class="cls-1" d="M522,575.47c1.19,5.28,4.81,8.1,11.18,8.1,6.82,0,9.53-3.17,9.53-7.31,0-4.41-2.19-6.85-11-9-10.6-2.57-14.19-6.22-14.19-12.46,0-6.69,4.94-12.07,14.92-12.07,10.68,0,15.07,6.14,15.67,12h-6.26c-.78-3.87-3.19-7.11-9.63-7.11-5.32,0-8.32,2.39-8.32,6.56s2.47,5.72,10.23,7.6c12.72,3.09,15,8,15,13.77,0,7.25-5.38,12.87-16.32,12.87-11.21,0-16.11-6.08-17-13Z" transform="translate(-0.12 0.01)"/><path class="cls-1" d="M574,587.91V543.39h8.1c6.33,10.38,20,32.24,22.44,37.08h.09c-.44-5.64-.4-12.71-.4-20v-17.1H610v44.52H602.4c-5.81-9.6-20.08-33.21-22.83-38.22h-.09c.32,5,.33,12.65.33,20.68v17.54Z" transform="translate(-0.12 0.01)"/><path class="cls-1" d="M628.06,574.76l-4.7,13.15h-6.12L633,543.39h7.6l16.48,44.52h-6.55l-4.85-13.15Zm16.11-5.25c-4.17-11.54-6.48-17.74-7.45-21.18h-.07c-1.09,3.82-3.67,11.31-7,21.18Z" transform="translate(-0.12 0.01)"/><path class="cls-1" d="M667.9,548.64H653.58v-5.25h34.85v5.25H674.1v39.27h-6.2Z" transform="translate(-0.12 0.01)"/><path class="cls-1" d="M700.91,543.39v44.52h-6.16V543.39Z" transform="translate(-0.12 0.01)"/><path class="cls-1" d="M751.53,565.4c0,12.26-6.91,23.15-21,23.15-13.17,0-20.48-10.13-20.48-22.9s7.51-22.9,21-22.9C743.66,542.75,751.53,552.14,751.53,565.4Zm-35,.06c0,9.55,4.85,17.86,14.3,17.86,10.22,0,14.26-8.42,14.26-17.83S740.51,548,730.84,548C720.89,548,716.53,556,716.53,565.46Z" transform="translate(-0.12 0.01)"/><path class="cls-1" d="M760.71,587.91V543.39h8.09c6.33,10.38,20,32.24,22.44,37.08h.09c-.43-5.64-.39-12.71-.39-20v-17.1h5.79v44.52h-7.61c-5.81-9.6-20.08-33.21-22.83-38.22h-.09c.32,5,.33,12.65.33,20.68v17.54Z" transform="translate(-0.12 0.01)"/><path class="cls-1" d="M811.33,575.47c1.19,5.28,4.81,8.1,11.17,8.1,6.82,0,9.54-3.17,9.54-7.31,0-4.41-2.19-6.85-11-9-10.6-2.57-14.2-6.22-14.2-12.46,0-6.69,4.94-12.07,14.92-12.07,10.69,0,15.07,6.14,15.67,12h-6.26c-.77-3.87-3.18-7.11-9.63-7.11-5.31,0-8.31,2.39-8.31,6.56s2.47,5.72,10.23,7.6c12.71,3.09,15,8,15,13.77,0,7.25-5.37,12.87-16.32,12.87-11.2,0-16.1-6.08-17-13Z" transform="translate(-0.12 0.01)"/><path class="cls-1" d="M869.18,543.39v26.77c0,10.39,5.67,13.21,11.31,13.21,6.59,0,11.21-3.06,11.21-13.21V543.39h6.2v26.45c0,14.5-8.06,18.63-17.54,18.63s-17.42-4.45-17.42-18.22V543.39Z" transform="translate(-0.12 0.01)"/><path class="cls-1" d="M909.39,587.91V543.39h8.09c6.33,10.38,20,32.24,22.44,37.08H940c-.43-5.64-.4-12.71-.4-20v-17.1h5.8v44.52H937.8c-5.81-9.6-20.08-33.21-22.84-38.22h-.08c.32,5,.33,12.65.33,20.68v17.54Z" transform="translate(-0.12 0.01)"/><path class="cls-1" d="M963.63,543.39v44.52h-6.16V543.39Z" transform="translate(-0.12 0.01)"/><path class="cls-1" d="M1003.77,567.21H981.69v15.45H1006l-.79,5.25h-29.5V543.39h29.17v5.25H981.69V562h22.08Z" transform="translate(-0.12 0.01)"/><path class="cls-1" d="M1017.5,575.47c1.2,5.28,4.82,8.1,11.18,8.1,6.82,0,9.54-3.17,9.54-7.31,0-4.41-2.2-6.85-11-9-10.6-2.57-14.2-6.22-14.2-12.46,0-6.69,4.94-12.07,14.92-12.07,10.68,0,15.07,6.14,15.67,12h-6.26c-.77-3.87-3.19-7.11-9.63-7.11-5.31,0-8.31,2.39-8.31,6.56s2.47,5.72,10.23,7.6c12.71,3.09,15,8,15,13.77,0,7.25-5.37,12.87-16.32,12.87-11.21,0-16.1-6.08-17-13Z" transform="translate(-0.12 0.01)"/><path class="cls-1" d="M603.49,607.45a38.89,38.89,0,0,0-8.44,23.88,40.42,40.42,0,0,0,8.44,24.47h-4.94a40.86,40.86,0,0,1-8-24.53,39.13,39.13,0,0,1,8-23.82Z" transform="translate(-0.12 0.01)"/><path class="cls-1" d="M633.88,629.35h-18.4v12.88h20.21L635,646.6H610.45V609.5h24.31v4.38H615.48V625h18.4Zm-.21-30.91-9.18,7.35h-5l7.82-7.35Z" transform="translate(-0.12 0.01)"/><path class="cls-1" d="M651.46,613.88H639.53V609.5h29v4.38H656.63V646.6h-5.17Z" transform="translate(-0.12 0.01)"/><path class="cls-1" d="M679.55,609.5v22.31c0,8.66,4.73,11,9.43,11,5.49,0,9.34-2.55,9.34-11V609.5h5.17v22c0,12.08-6.72,15.52-14.62,15.52s-14.52-3.71-14.52-15.19V609.5Z" transform="translate(-0.12 0.01)"/><path class="cls-1" d="M713.06,609.5h13.36c10.45,0,17.5,7.11,17.5,18.17s-6.87,18.93-17.68,18.93H713.06Zm5.13,32.77h7.66c8.63,0,12.71-6.19,12.71-14.5,0-7.24-3.73-13.93-12.69-13.93h-7.68Z" transform="translate(-0.12 0.01)"/><path class="cls-1" d="M756.71,609.5v37.1h-5.13V609.5Z" transform="translate(-0.12 0.01)"/><path class="cls-1" d="M771.72,635.65l-3.92,11h-5.1l13.17-37.1h6.34l13.73,37.1h-5.46l-4-11Zm13.43-4.38c-3.48-9.62-5.4-14.79-6.21-17.65h-.06c-.91,3.18-3.06,9.42-5.86,17.65Z" transform="translate(-0.12 0.01)"/><path class="cls-1" d="M801.74,646.6V609.5h6.75c5.27,8.65,16.64,26.87,18.7,30.91h.07c-.36-4.7-.33-10.6-.33-16.66V609.5h4.83v37.1h-6.34c-4.84-8-16.74-27.67-19-31.84h-.08c.27,4.16.28,10.54.28,17.23V646.6Z" transform="translate(-0.12 0.01)"/><path class="cls-1" d="M849.43,613.88H837.49V609.5h29v4.38H854.59V646.6h-5.16Z" transform="translate(-0.12 0.01)"/><path class="cls-1" d="M872.12,655.8a38.89,38.89,0,0,0,8.44-23.88,40.38,40.38,0,0,0-8.44-24.47h4.94a40.86,40.86,0,0,1,8,24.53,39.07,39.07,0,0,1-8,23.82Z" transform="translate(-0.12 0.01)"/><path class="cls-1" d="M558,374.49c0,10.16-3.29,14.79-13,14.79a28.87,28.87,0,0,1-6-.55v-7.59a38.36,38.36,0,0,0,4.36.26c4.39,0,5-2.93,5-6.29V344.5H558Z" transform="translate(-0.12 0.01)"/><path class="cls-1" d="M598.58,369.6H577.47v11.22h23.29l-1.13,7.82H568.21V344.5h31.3v7.82h-22v9.46h21.11Z" transform="translate(-0.12 0.01)"/><path class="cls-1" d="M644.78,372.08c0-7.53.12-16,.31-21h-.31c-2.07,9-6.48,23.71-10.72,37.52h-8.12c-3.22-12.08-7.79-28.83-9.72-37.64h-.3c.38,5.18.56,14.26.56,21.83v15.81h-8.7V344.5H622c3.45,11.53,7.3,26,8.63,32.58h.07c1.08-5.8,5.93-21.27,9.61-32.58H654v44.14h-9.2Z" transform="translate(-0.12 0.01)"/><path class="cls-1" d="M687.08,388.64,675.85,344.5H686c4.13,20.28,6,29.28,6.53,34.13h.07c1.68-8.11,5.94-23.47,8.51-34.13h8.58c2.27,8.47,6.73,25.59,8.17,33.67H718c1.47-9.72,5.8-26.81,7.36-33.67h9.27l-12,44.14h-9.89c-2.32-9.78-6.2-24-7.76-31.6h-.06c-1.61,7.86-5.59,22.71-7.94,31.6Z" transform="translate(-0.12 0.01)"/><path class="cls-1" d="M745.59,378.44l-3.45,10.2h-9.38l15-44.14h12l15.64,44.14h-10l-3.63-10.2Zm14.07-7.82c-3.14-9.31-5.13-15.27-6.2-19.23h-.06c-1.09,4.35-3.3,11.27-5.81,19.23Z" transform="translate(-0.12 0.01)"/><path class="cls-1" d="M781.05,344.5h9.54v36.32h22l-1.09,7.82H781.05Z" transform="translate(-0.12 0.01)"/><path class="cls-1" d="M818.25,344.5h9.43v19.7c2.91-3.4,12-13.36,17.58-19.7h11.43L839,362.85l18.38,25.79H845.88L832.34,369l-4.66,4.45v15.16h-9.43Z" transform="translate(-0.12 0.01)"/><path class="cls-1" d="M892.36,369.6H871.25v11.22h23.28l-1.13,7.82H862V344.5h31.3v7.82h-22v9.46h21.11Z" transform="translate(-0.12 0.01)"/><path class="cls-1" d="M910.69,371v17.67h-9.33V344.5h19.4c9.62,0,14.8,5.3,14.8,12.12,0,5.92-3.22,9.13-6.41,10.44,2.19.81,5.48,3.08,5.48,11v2.17c0,3,0,6.35.64,8.42h-9c-.77-1.92-.92-5.22-.92-9.91v-.65c0-4.82-1.22-7.11-8.33-7.11Zm0-7.59h8c5.23,0,7.24-2,7.24-5.68s-2.34-5.6-7-5.6h-8.23Z" transform="translate(-0.12 0.01)"/></svg>